<?xml version="1.0" encoding="UTF-8"?>
<svg version="1.1" xmlns="http://www.w3.org/2000/svg" width="500" height="500">
<path d="M0 0 C165 0 330 0 500 0 C500 165 500 330 500 500 C335 500 170 500 0 500 C0 335 0 170 0 0 Z " fill="#191717" transform="translate(0,0)"/>
<path d="M0 0 C1.1713147 -0.01268417 2.34262939 -0.02536835 3.54943848 -0.03843689 C4.81509644 -0.03550125 6.08075439 -0.03256561 7.38476562 -0.02954102 C8.68297241 -0.03478287 9.9811792 -0.04002472 11.31872559 -0.04542542 C14.06593543 -0.05435855 16.81285459 -0.05193102 19.56005859 -0.04199219 C23.08112477 -0.03049508 26.60118917 -0.05072233 30.12212372 -0.07990932 C33.48055805 -0.10266153 36.83875597 -0.09580575 40.19726562 -0.09204102 C42.09575256 -0.10889198 42.09575256 -0.10889198 44.03259277 -0.12608337 C45.78956482 -0.11201195 45.78956482 -0.11201195 47.58203125 -0.09765625 C49.13065857 -0.097407 49.13065857 -0.097407 50.71057129 -0.09715271 C53.29101562 0.40405273 53.29101562 0.40405273 56.29101562 4.40405273 C56.29101562 24.20405273 56.29101562 44.00405273 56.29101562 64.40405273 C107.11101562 64.40405273 157.93101562 64.40405273 210.29101562 64.40405273 C210.29101562 44.60405273 210.29101562 24.80405273 210.29101562 4.40405273 C213.29101562 0.40405273 213.29101562 0.40405273 215.87145996 -0.10388184 C217.42008728 -0.1086554 217.42008728 -0.1086554 219 -0.11352539 C220.75697205 -0.13243835 220.75697205 -0.13243835 222.54943848 -0.1517334 C223.81509644 -0.14363647 225.08075439 -0.13553955 226.38476562 -0.12719727 C227.68297241 -0.13102417 228.9811792 -0.13485107 230.31872559 -0.13879395 C233.06603025 -0.14468978 235.81281446 -0.13612445 238.56005859 -0.11743164 C242.08116836 -0.09464063 245.6010587 -0.10776345 249.12212372 -0.1317215 C252.48060209 -0.14965359 255.83875259 -0.13709762 259.19726562 -0.12719727 C261.09575256 -0.13934265 261.09575256 -0.13934265 263.03259277 -0.1517334 C264.20390747 -0.13912476 265.37522217 -0.12651611 266.58203125 -0.11352539 C267.61444946 -0.11034302 268.64686768 -0.10716064 269.71057129 -0.10388184 C272.29101562 0.40405273 272.29101562 0.40405273 274.12654114 2.24737549 C275.73868314 5.23316008 275.63007793 7.53948383 275.58398438 10.91967773 C275.57431641 12.17006836 275.56464844 13.42045898 275.5546875 14.70874023 C275.52955078 16.01069336 275.50441406 17.31264648 275.47851562 18.65405273 C275.46498047 19.97147461 275.45144531 21.28889648 275.4375 22.64624023 C275.40214113 25.89925595 275.35278596 29.15144874 275.29101562 32.40405273 C276.84997559 32.36477661 276.84997559 32.36477661 278.44042969 32.32470703 C282.301701 32.23410866 286.16287872 32.1767697 290.02490234 32.12939453 C291.69531052 32.10427196 293.36560899 32.07016721 295.03564453 32.02685547 C297.43875183 31.96609874 299.84040467 31.93782252 302.24414062 31.91577148 C302.98907776 31.88996506 303.73401489 31.86415863 304.50152588 31.83757019 C308.23770987 31.83555571 309.94383251 32.09407758 312.76953125 34.61694336 C314.38884684 37.58326344 314.76362129 39.14537193 314.68164062 42.48608398 C314.66230469 43.88310547 314.66230469 43.88310547 314.64257812 45.30834961 C314.59230469 46.74791016 314.59230469 46.74791016 314.54101562 48.21655273 C314.52296875 49.1955957 314.50492187 50.17463867 314.48632812 51.18334961 C314.4393445 53.59126044 314.37367257 55.99714609 314.29101562 58.40405273 C315.32742188 58.35764648 316.36382812 58.31124023 317.43164062 58.26342773 C318.80140341 58.22589999 320.17119744 58.18950089 321.54101562 58.15405273 C322.22292969 58.12053711 322.90484375 58.08702148 323.60742188 58.05249023 C326.90041127 57.98854869 328.8385361 58.05561455 331.48716736 60.0952301 C333.66538134 62.88321944 333.80124885 64.23293347 333.82446289 67.73583984 C333.84029922 68.80051987 333.85613556 69.86519989 333.87245178 70.96214294 C333.86501198 72.67942345 333.86501198 72.67942345 333.85742188 74.43139648 C333.86362045 75.61246475 333.86981903 76.79353302 333.87620544 78.01039124 C333.88330839 80.5077329 333.88012144 83.00512188 333.86743164 85.50244141 C333.85357908 89.32404784 333.88761896 93.14320051 333.92578125 96.96459961 C333.92673254 99.3910325 333.92487307 101.81746846 333.91992188 104.24389648 C333.93318008 105.38672592 333.94643829 106.52955536 333.96009827 107.70701599 C333.86750681 115.5958898 333.86750681 115.5958898 330.98730469 119.63354492 C327.46418726 121.94698639 324.54123989 121.96925807 320.47851562 121.71655273 C319.78564453 121.69399414 319.09277344 121.67143555 318.37890625 121.64819336 C316.68199989 121.58967935 314.98621701 121.50000753 313.29101562 121.40405273 C313.30672607 122.11537354 313.32243652 122.82669434 313.33862305 123.55957031 C313.40093478 126.77848377 313.4399943 129.99727042 313.47851562 133.21655273 C313.5162207 134.89587891 313.5162207 134.89587891 313.5546875 136.60913086 C313.56435547 137.68227539 313.57402344 138.75541992 313.58398438 139.86108398 C313.59969482 140.85084229 313.61540527 141.84060059 313.6315918 142.86035156 C313.29101562 145.40405273 313.29101562 145.40405273 312.26953125 147.23217773 C309.13028942 149.09155098 305.88189964 148.77009782 302.34179688 148.69702148 C301.56918015 148.69277664 300.79656342 148.6885318 300.00053406 148.68415833 C297.5345057 148.66737457 295.06929667 148.62972421 292.60351562 148.59155273 C290.93100139 148.57650545 289.25847434 148.56281712 287.5859375 148.55053711 C283.48731485 148.5174722 279.38930412 148.46569302 275.29101562 148.40405273 C275.30672607 149.23130859 275.32243652 150.05856445 275.33862305 150.91088867 C275.40097867 154.65854051 275.44000909 158.40608319 275.47851562 162.15405273 C275.50365234 163.45600586 275.52878906 164.75795898 275.5546875 166.09936523 C275.56435547 167.34975586 275.57402344 168.60014648 275.58398438 169.88842773 C275.59969482 171.04052734 275.61540527 172.19262695 275.6315918 173.37963867 C275.24397091 176.82182332 274.70670699 177.96917321 272.29101562 180.40405273 C269.75526428 180.9119873 269.75526428 180.9119873 266.68969727 180.92163086 C264.96759789 180.94054382 264.96759789 180.94054382 263.21070862 180.95983887 C261.34973793 180.94769348 261.34973793 180.94769348 259.45117188 180.93530273 C257.54071327 180.94104309 257.54071327 180.94104309 255.59165955 180.94689941 C252.89527252 180.9496243 250.20033119 180.94423154 247.50415039 180.92553711 C244.05263225 180.9027689 240.60235971 180.91585404 237.15088749 180.93982697 C233.85510467 180.95778221 230.55947097 180.94519819 227.26367188 180.93530273 C226.02504898 180.94339966 224.78642609 180.95149658 223.51026917 180.95983887 C222.35905075 180.94723022 221.20783234 180.93462158 220.02172852 180.92163086 C219.00929581 180.91844849 217.9968631 180.91526611 216.95375061 180.9119873 C214.29101562 180.40405273 214.29101562 180.40405273 210.29101562 176.40405273 C210.29101562 156.60405273 210.29101562 136.80405273 210.29101562 116.40405273 C159.47101563 116.40405273 108.65101563 116.40405273 56.29101562 116.40405273 C56.29101562 136.20405273 56.29101562 156.00405273 56.29101562 176.40405273 C51.78987558 180.90519278 51.78987558 180.90519278 46.56030273 180.92163086 C44.83347511 180.94054382 44.83347511 180.94054382 43.07176208 180.95983887 C41.83313919 180.95174194 40.5945163 180.94364502 39.31835938 180.93530273 C37.40646568 180.94104309 37.40646568 180.94104309 35.45594788 180.94689941 C32.76133872 180.94962181 30.068181 180.94425164 27.3737793 180.92553711 C23.9210717 180.90272343 20.46960618 180.91588735 17.01694393 180.93982697 C13.72153777 180.95775574 10.42628173 180.94520449 7.13085938 180.93530273 C5.89021225 180.94339966 4.64956512 180.95149658 3.37132263 180.95983887 C2.22325638 180.94723022 1.07519012 180.93462158 -0.10766602 180.92163086 C-1.62512169 180.9168573 -1.62512169 180.9168573 -3.17323303 180.9119873 C-5.70898438 180.40405273 -5.70898438 180.40405273 -7.53778076 178.56072998 C-9.15916603 175.57507942 -9.04810155 173.27264523 -9.00195312 169.88842773 C-8.98745117 168.0128418 -8.98745117 168.0128418 -8.97265625 166.09936523 C-8.94751953 164.79741211 -8.92238281 163.49545898 -8.89648438 162.15405273 C-8.87618164 160.17791992 -8.87618164 160.17791992 -8.85546875 158.16186523 C-8.82010988 154.90884952 -8.77075471 151.65665673 -8.70898438 148.40405273 C-10.26794434 148.44332886 -10.26794434 148.44332886 -11.85839844 148.48339844 C-15.71966975 148.5739968 -19.58084747 148.63133577 -23.44287109 148.67871094 C-25.11327927 148.70383351 -26.78357774 148.73793825 -28.45361328 148.78125 C-30.85672058 148.84200673 -33.25837342 148.87028294 -35.66210938 148.89233398 C-36.40704651 148.91814041 -37.15198364 148.94394684 -37.91949463 148.97053528 C-41.65567862 148.97254976 -43.36180126 148.71402789 -46.1875 146.19116211 C-47.80681559 143.22484202 -48.18159004 141.66273354 -48.09960938 138.32202148 C-48.08027344 136.925 -48.08027344 136.925 -48.06054688 135.49975586 C-48.01027344 134.06019531 -48.01027344 134.06019531 -47.95898438 132.59155273 C-47.9409375 131.61250977 -47.92289063 130.6334668 -47.90429688 129.62475586 C-47.85731325 127.21684503 -47.79164132 124.81095938 -47.70898438 122.40405273 C-48.74539062 122.45045898 -49.78179687 122.49686523 -50.84960938 122.54467773 C-52.21937216 122.58220548 -53.58916619 122.61860457 -54.95898438 122.65405273 C-55.64089844 122.68756836 -56.3228125 122.72108398 -57.02539062 122.75561523 C-60.31407997 122.81947328 -62.2569348 122.75061822 -64.90612793 120.71960449 C-67.10325809 117.89765568 -67.21476939 116.50775754 -67.2265625 112.96459961 C-67.23917114 111.87667114 -67.25177979 110.78874268 -67.26477051 109.66784668 C-67.25667358 108.49798218 -67.24857666 107.32811768 -67.24023438 106.12280273 C-67.24406128 104.91716675 -67.24788818 103.71153076 -67.25183105 102.46936035 C-67.25455263 99.92072718 -67.24717443 97.3720662 -67.23046875 94.82348633 C-67.20906477 90.91871971 -67.23026441 87.01579326 -67.25585938 83.11108398 C-67.25321615 80.6358195 -67.24809127 78.16055616 -67.24023438 75.68530273 C-67.2483313 74.51543823 -67.25642822 73.34557373 -67.26477051 72.14025879 C-67.25216187 71.05233032 -67.23955322 69.96440186 -67.2265625 68.84350586 C-67.22338013 67.88738403 -67.22019775 66.93126221 -67.21691895 65.94616699 C-66.55409134 62.62884308 -65.3745035 61.43494548 -62.70898438 59.40405273 C-59.81448488 59.11344034 -57.32948502 59.02219228 -54.45898438 59.15405273 C-53.71390625 59.17209961 -52.96882813 59.19014648 -52.20117188 59.20874023 C-50.36988736 59.25569625 -48.53926789 59.32743622 -46.70898438 59.40405273 C-46.72469482 58.69273193 -46.74040527 57.98141113 -46.7565918 57.24853516 C-46.81890353 54.0296217 -46.85796305 50.81083505 -46.89648438 47.59155273 C-46.92162109 46.47200195 -46.94675781 45.35245117 -46.97265625 44.19897461 C-46.98232422 43.12583008 -46.99199219 42.05268555 -47.00195312 40.94702148 C-47.01766357 39.95726318 -47.03337402 38.96750488 -47.04956055 37.94775391 C-46.70898438 35.40405273 -46.70898438 35.40405273 -45.6875 33.57592773 C-42.54825817 31.71655449 -39.29986839 32.03800765 -35.75976562 32.11108398 C-34.9871489 32.11532883 -34.21453217 32.11957367 -33.41850281 32.12394714 C-30.95247445 32.1407309 -28.48726542 32.17838126 -26.02148438 32.21655273 C-24.34897014 32.23160002 -22.67644309 32.24528835 -21.00390625 32.25756836 C-16.9052836 32.29063327 -12.80727287 32.34241245 -8.70898438 32.40405273 C-8.72469482 31.54126709 -8.74040527 30.67848145 -8.7565918 29.78955078 C-8.80774392 26.58596006 -8.84534598 23.38257758 -8.8737793 20.17871094 C-8.88885834 18.79257354 -8.90932488 17.40648379 -8.93530273 16.02050781 C-8.97172153 14.02747127 -8.98711456 12.03408551 -9.00195312 10.04077148 C-9.01766357 8.84154053 -9.03337402 7.64230957 -9.04956055 6.40673828 C-8.70898438 3.40405273 -8.70898438 3.40405273 -7.54450989 1.74163818 C-4.97826535 -0.12843735 -3.15939271 0.01653414 0 0 Z " fill="#FB0000" transform="translate(116.708984375,158.595947265625)"/>
<path d="M0 0 C12.87 0 25.74 0 39 0 C39 51.48 39 102.96 39 156 C26.13 156 13.26 156 0 156 C0 104.52 0 53.04 0 0 Z " fill="#1C1717" transform="translate(340,171)"/>
<path d="M0 0 C12.87 0 25.74 0 39 0 C39 51.48 39 102.96 39 156 C26.13 156 13.26 156 0 156 C0 104.52 0 53.04 0 0 Z " fill="#1C1717" transform="translate(121,171)"/>
<path d="M0 0 C50.82 0 101.64 0 154 0 C154 8.58 154 17.16 154 26 C103.18 26 52.36 26 0 26 C0 17.42 0 8.84 0 0 Z " fill="#191818" transform="translate(173,236)"/>
<path d="M0 0 C8.58 0 17.16 0 26 0 C26 29.7 26 59.4 26 90 C17.42 90 8.84 90 0 90 C0 60.3 0 30.6 0 0 Z " fill="#1C1717" transform="translate(392,204)"/>
<path d="M0 0 C8.58 0 17.16 0 26 0 C26 29.7 26 59.4 26 90 C17.42 90 8.84 90 0 90 C0 60.3 0 30.6 0 0 Z " fill="#1C1717" transform="translate(82,204)"/>
<path d="M0 0 C2.31 0 4.62 0 7 0 C7.02464928 5.25105442 7.04283568 10.50207545 7.05493164 15.75317383 C7.05997218 17.54094021 7.06680454 19.32870245 7.07543945 21.11645508 C7.0875173 23.68051168 7.09323094 26.24451397 7.09765625 28.80859375 C7.10281754 29.6127623 7.10797882 30.41693085 7.11329651 31.24546814 C7.11349215 33.16401715 7.06201983 35.08245368 7 37 C6.505 37.495 6.505 37.495 6 38 C4.02 38 2.04 38 0 38 C0 25.46 0 12.92 0 0 Z " fill="#2E1515" transform="translate(63,231)"/>
<path d="M0 0 C1.98 0 3.96 0 6 0 C6 12.54 6 25.08 6 38 C3.69 38 1.38 38 -1 38 C-1.02464928 32.74894558 -1.04283568 27.49792455 -1.05493164 22.24682617 C-1.05997218 20.45905979 -1.06680454 18.67129755 -1.07543945 16.88354492 C-1.0875173 14.31948832 -1.09323094 11.75548603 -1.09765625 9.19140625 C-1.10281754 8.3872377 -1.10797882 7.58306915 -1.11329651 6.75453186 C-1.11349215 4.83598285 -1.06201983 2.91754632 -1 1 C-0.67 0.67 -0.34 0.34 0 0 Z " fill="#2E1515" transform="translate(431,229)"/>
</svg>
